<?xml version="1.0" encoding="iso-8859-1"?>
<!-- Generator: Adobe Illustrator 19.0.0, SVG Export Plug-In . SVG Version: 6.00 Build 0)  -->
<svg version="1.1" id="Capa_1" xmlns="http://www.w3.org/2000/svg" xmlns:xlink="http://www.w3.org/1999/xlink" x="0px" y="0px"
	 viewBox="0 0 512 512" style="enable-background:new 0 0 512 512;" xml:space="preserve">
<polygon style="fill:#E3F2FF;" points="325.436,333.473 325.436,235.988 113.446,235.988 113.446,402.98 231.1,402.98 
	231.124,402.98 "/>
<g>
	<path style="fill:#FE73B1;" d="M406.025,343.379c0.019-0.011,0.033-0.019,0.04-0.023
		C406.058,343.36,406.044,343.368,406.025,343.379z"/>
	<path style="fill:#FE73B1;" d="M406.065,343.356C406.071,343.352,406.072,343.351,406.065,343.356L406.065,343.356z"/>
	<path style="fill:#FE73B1;" d="M405.972,343.41c0.021-0.012,0.038-0.022,0.053-0.031
		C406.011,343.387,405.994,343.397,405.972,343.41z"/>
	<path style="fill:#FE73B1;" d="M405.637,343.603c-0.049,0.028-0.096,0.056-0.139,0.08c0.027-0.016,0.051-0.03,0.076-0.044
		C405.594,343.628,405.615,343.615,405.637,343.603z"/>
	<path style="fill:#FE73B1;" d="M405.972,343.41c-0.042,0.024-0.093,0.054-0.148,0.086c0.032-0.019,0.069-0.04,0.105-0.061
		C405.944,343.425,405.959,343.417,405.972,343.41z"/>
	<path style="fill:#FE73B1;" d="M406.052,343.363c-0.045,0.026-0.083,0.048-0.124,0.072c-0.033,0.019-0.072,0.041-0.118,0.068
		c0.004-0.002,0.008-0.005,0.013-0.007c-0.071,0.041-0.132,0.076-0.186,0.107c0.026-0.015,0.051-0.03,0.077-0.045
		c-0.042,0.024-0.089,0.051-0.14,0.081c-0.079,0.046-0.137,0.079-0.175,0.101c0.027-0.015,0.06-0.035,0.098-0.057
		c-2.401,1.386-13.706,7.914-57.743,33.338l45.561,78.911l57.734-33.333c26.414-15.253,39.001-44.96,33.867-73.162
		C463.057,331.865,431.8,328.496,406.052,343.363z"/>
</g>
<path style="fill:#FEC459;" d="M244.894,481.061c21.826,22.231,56.69,27.834,84.922,11.534l58.018-33.498l-45.079-78.076
	l-62.937,36.338C256.556,430.795,243.792,455.723,244.894,481.061z"/>
<path style="fill:#ED5151;" d="M317.436,205.32l-51.997-69.326V95.995h-94.995v39.998l-51.997,69.326c-5.19,6.93-8,15.349-8,23.999
	v6.67h214.989v-6.67C325.436,220.669,322.626,212.249,317.436,205.32z"/>
<path style="fill:#57555C;" d="M285.438,75.996V29.998c0-11.049-8.95-19.999-19.999-19.999H163.444
	c-11.049,0-19.999,8.95-19.999,19.999v45.998c0,11.049,8.95,19.999,19.999,19.999h101.995
	C276.488,95.995,285.438,87.046,285.438,75.996z"/>
<path style="fill:#ED5151;" d="M231.11,402.99l-0.01-0.01H112.447v19.999c0,22.089,17.909,39.998,39.998,39.998h79.606l0.01-0.01
	L231.11,402.99z"/>
<path d="M125.696,145.993c5.52,0,9.999-4.48,9.999-9.999c0-5.52-4.48-9.999-9.999-9.999c-5.52,0-9.999,4.48-9.999,9.999
	C115.696,141.513,120.176,145.993,125.696,145.993z"/>
<path d="M215.691,312.984h-29.998v-29.998c0-5.522-4.478-9.999-9.999-9.999s-9.999,4.478-9.999,9.999v29.998h-29.998
	c-5.522,0-9.999,4.478-9.999,10c0,5.522,4.478,9.999,9.999,9.999h29.998v29.998c0,5.522,4.478,9.999,9.999,9.999
	s9.999-4.478,9.999-9.999v-29.998h29.998c5.522,0,9.999-4.478,9.999-9.999C225.691,317.462,221.214,312.984,215.691,312.984z"/>
<path d="M376.303,292.705l-40.618,23.45v-86.836c0-10.735-3.55-21.388-10-29.998l-49.997-66.661v-28.386
	c11.638-4.128,19.999-15.242,19.999-28.279V29.998C295.687,13.457,282.23,0,265.689,0H85.698C69.157,0,55.699,13.457,55.699,29.998
	v45.998c0,13.035,8.361,24.151,19.999,28.279v28.386l-50.001,66.665c-6.446,8.606-9.995,19.258-9.995,29.993v193.66
	c0,27.569,22.429,49.997,49.997,49.997h160.702c22.421,37.583,70.767,50.16,108.664,28.279L456.3,431.258
	c37.955-21.918,51.494-70.779,29.277-109.274C463.473,283.698,414.596,270.594,376.303,292.705z M225.219,392.98H35.7V245.988
	h279.986V327.7l-60.619,35.002C242.428,370.003,232.212,380.396,225.219,392.98z M75.698,29.998c0-5.514,4.486-9.999,9.999-9.999
	h179.991c5.514,0,10,4.486,10,9.999v45.998c0,5.514-4.486,9.999-10,9.999H85.698c-5.514,0-9.999-4.486-9.999-9.999
	C75.698,75.996,75.698,29.998,75.698,29.998z M93.697,141.993c1.298-1.73,2-3.836,2-6v-29.998h159.992v19.999h-89.995
	c-5.522,0-9.999,4.478-9.999,9.999c0,5.522,4.478,9.999,9.999,9.999h94.995l48.993,65.322c3.202,4.275,5.191,9.39,5.792,14.674
	H35.913c0.6-5.284,2.589-10.398,5.788-14.669L93.697,141.993z M35.7,422.979v-10.099h181.675
	c-3.171,12.965-3.15,26.813,0.481,40.098H65.699C49.158,452.977,35.7,439.52,35.7,422.979z M325.066,483.935
	c-28.697,16.571-65.367,6.771-81.949-21.946c-16.661-28.994-6.564-65.498,21.952-81.969l54.277-31.338l59.997,103.915
	L325.066,483.935z M446.3,413.939l-49.637,28.659l-59.998-103.917l49.638-28.657c28.716-16.578,65.373-6.761,81.955,21.957
	C484.913,360.844,474.785,397.49,446.3,413.939z"/>
<g>
</g>
<g>
</g>
<g>
</g>
<g>
</g>
<g>
</g>
<g>
</g>
<g>
</g>
<g>
</g>
<g>
</g>
<g>
</g>
<g>
</g>
<g>
</g>
<g>
</g>
<g>
</g>
<g>
</g>
</svg>
