<svg id="Layer_3" enable-background="new 0 0 64 64" height="512" viewBox="0 0 64 64" width="512" xmlns="http://www.w3.org/2000/svg"><g><circle cx="32" cy="9" fill="#f4b2b0" r="7"/><g fill="#b3404a"><path d="m28 20c-.352 0-.686.072-1 .184v-1.184c0-1.654-1.346-3-3-3-.395 0-.77.081-1.116.22-.345-1.275-1.501-2.22-2.884-2.22-1.654 0-3 1.346-3 3v1.184c-.314-.112-.648-.184-1-.184-1.654 0-3 1.346-3 3v8.184c-.314-.112-.648-.184-1-.184-1.654 0-3 1.346-3 3v11c0 .266.105.52.293.707l3.707 3.707v1.77c-1.161.414-2 1.514-2 2.816s.839 2.402 2 2.816v8.184h2v-8h10v8h2v-8.184c1.161-.414 2-1.514 2-2.816s-.839-2.402-2-2.816v-1.77l3.707-3.707c.188-.187.293-.441.293-.707v-20c0-1.654-1.346-3-3-3zm-2 33h-12c-.552 0-1-.448-1-1s.448-1 1-1h12c.552 0 1 .448 1 1s-.448 1-1 1zm3-10.414-3.707 3.707c-.188.187-.293.441-.293.707v2h-10v-2c0-.266-.105-.52-.293-.707l-3.707-3.707v-10.586c0-.552.448-1 1-1s1 .448 1 1v3 1c0 .553.447 1 1 1 1.654 0 3 1.346 3 3v2h2v-2c0-2.415-1.721-4.435-4-4.899v-.101-3-11c0-.552.448-1 1-1s1 .448 1 1v10h2v-14c0-.552.448-1 1-1s1 .448 1 1v14h2v-12c0-.552.448-1 1-1s1 .448 1 1v12h2v-8c0-.552.448-1 1-1s1 .448 1 1z"/><path d="m52 29c-.352 0-.686.072-1 .184v-8.184c0-1.654-1.346-3-3-3-.352 0-.686.072-1 .184v-1.184c0-1.654-1.346-3-3-3-1.383 0-2.538.945-2.884 2.22-.346-.139-.721-.22-1.116-.22-1.654 0-3 1.346-3 3v1.184c-.314-.112-.648-.184-1-.184-1.654 0-3 1.346-3 3v20c0 .266.105.52.293.707l3.707 3.707v1.77c-1.161.414-2 1.514-2 2.816s.839 2.402 2 2.816v8.184h2v-8h10v8h2v-8.184c1.161-.414 2-1.514 2-2.816s-.839-2.402-2-2.816v-1.77l3.707-3.707c.188-.187.293-.441.293-.707v-11c0-1.654-1.346-3-3-3zm-2 24h-12c-.552 0-1-.448-1-1s.448-1 1-1h12c.552 0 1 .448 1 1s-.448 1-1 1zm3-10.414-3.707 3.707c-.188.187-.293.441-.293.707v2h-10v-2c0-.266-.105-.52-.293-.707l-3.707-3.707v-19.586c0-.552.448-1 1-1s1 .448 1 1v8h2v-12c0-.552.448-1 1-1s1 .448 1 1v12h2v-14c0-.552.448-1 1-1s1 .448 1 1v14h2v-10c0-.552.448-1 1-1s1 .448 1 1v11 3 .101c-2.279.465-4 2.484-4 4.899v2h2v-2c0-1.654 1.346-3 3-3 .553 0 1-.447 1-1v-1-3c0-.552.448-1 1-1s1 .448 1 1z"/><path d="m40 9c0-4.411-3.589-8-8-8s-8 3.589-8 8 3.589 8 8 8 8-3.589 8-8zm-8 6c-3.309 0-6-2.691-6-6s2.691-6 6-6 6 2.691 6 6-2.691 6-6 6z"/><path d="m31 10.197-1.168-1.752-1.664 1.109 2 3c.186.279.498.446.832.446s.646-.167.832-.445l4-6-1.664-1.109z"/></g></g></svg>